<?xml version="1.0" standalone="no"?>
<!DOCTYPE svg PUBLIC "-//W3C//DTD SVG 20010904//EN"
 "http://www.w3.org/TR/2001/REC-SVG-20010904/DTD/svg10.dtd">
<svg version="1.0" xmlns="http://www.w3.org/2000/svg"
 width="360.000000pt" height="360.000000pt" viewBox="0 0 360.000000 360.000000"
 preserveAspectRatio="xMidYMid meet">

<g transform="translate(0.000000,360.000000) scale(0.100000,-0.100000)"
fill="#000000" stroke="none">
<path d="M2059 3033 c-30 -27 -56 -50 -59 -53 -3 -3 -39 -34 -80 -70 -41 -36
-77 -67 -80 -70 -3 -3 -39 -34 -80 -70 -41 -36 -77 -67 -80 -70 -3 -3 -61 -55
-130 -115 -69 -60 -130 -114 -136 -120 -6 -5 -72 -64 -147 -130 l-137 -120 1
-415 0 -415 79 -67 c43 -38 82 -68 87 -68 5 0 70 82 143 183 74 100 178 241
231 312 231 313 386 524 421 574 l38 54 0 354 c0 200 -4 353 -9 353 -5 0 -33
-21 -62 -47z"/>
<path d="M2559 2883 c-68 -93 -166 -226 -219 -298 -53 -71 -311 -422 -575
-780 -263 -357 -501 -681 -530 -720 -177 -238 -367 -500 -371 -510 -6 -16 75
-81 85 -69 12 15 103 138 456 619 367 499 480 652 560 760 29 39 97 131 151
205 55 74 138 186 184 249 47 63 130 176 185 251 55 76 142 195 194 265 l95
128 -40 33 c-21 19 -42 34 -45 34 -4 0 -62 -75 -130 -167z"/>
<path d="M2734 2598 c-51 -59 -53 -51 32 -141 183 -190 266 -392 268 -647 2
-270 -84 -478 -282 -682 l-65 -66 32 -41 c18 -23 36 -41 41 -41 20 0 190 195
234 269 218 363 207 797 -31 1154 -36 54 -189 217 -203 217 -4 0 -15 -10 -26
-22z"/>
<path d="M2582 2385 c-18 -20 -32 -41 -32 -48 0 -8 14 -26 31 -43 88 -82 163
-231 188 -368 39 -215 -21 -424 -170 -598 -27 -31 -49 -59 -49 -63 0 -14 53
-75 65 -75 21 0 116 111 163 190 24 40 57 113 74 164 27 79 32 108 36 223 3
100 0 150 -13 208 -34 153 -112 300 -213 398 l-49 48 -31 -36z"/>
<path d="M452 1803 l3 -388 308 -3 307 -2 0 390 0 390 -310 0 -310 0 2 -387z"/>
<path d="M2390 2112 c-14 -20 -26 -39 -28 -43 -1 -3 17 -26 42 -51 116 -121
114 -310 -4 -438 l-40 -43 20 -32 c38 -62 44 -62 100 -6 30 30 64 79 83 119
30 63 32 73 32 182 0 109 -2 119 -32 182 -31 66 -115 168 -137 168 -6 0 -22
-17 -36 -38z"/>
<path d="M2009 1878 c-147 -204 -464 -633 -516 -701 -25 -31 -43 -62 -41 -67
2 -5 48 -49 104 -97 55 -48 189 -167 299 -263 109 -96 212 -187 229 -202 17
-15 34 -27 39 -28 4 0 7 338 7 750 0 413 -4 750 -9 750 -4 0 -55 -64 -112
-142z"/>
</g>
</svg>
