<?xml version="1.0" standalone="no"?>
<!DOCTYPE svg PUBLIC "-//W3C//DTD SVG 20010904//EN"
 "http://www.w3.org/TR/2001/REC-SVG-20010904/DTD/svg10.dtd">
<svg version="1.0" xmlns="http://www.w3.org/2000/svg"
 width="360.000000pt" height="360.000000pt" viewBox="0 0 360.000000 360.000000"
 preserveAspectRatio="xMidYMid meet">

<g transform="translate(0.000000,360.000000) scale(0.100000,-0.100000)"
fill="#000000" stroke="none">
<path d="M3010 2385 c0 -330 -4 -545 -9 -545 -5 0 -67 31 -138 69 -70 38 -267
142 -438 231 -170 89 -484 254 -697 366 -212 112 -389 204 -392 204 -3 0 -6
-101 -6 -225 0 -124 -3 -225 -6 -225 -7 0 -105 51 -581 302 -155 81 -284 148
-287 148 -3 0 -6 -412 -6 -915 0 -503 3 -915 6 -915 4 0 59 28 123 61 64 34
159 84 211 112 52 27 127 66 165 87 152 81 363 190 369 190 3 0 6 -101 6 -225
0 -178 3 -225 13 -225 7 0 17 4 23 9 5 5 189 103 409 219 220 115 439 230 488
256 461 244 734 386 740 386 4 0 7 -247 7 -548 l0 -548 63 2 c34 2 65 3 70 4
4 0 7 511 7 1135 l0 1135 -70 0 -70 0 0 -545z"/>
</g>
</svg>
