<?xml version="1.0" standalone="no"?>
<!DOCTYPE svg PUBLIC "-//W3C//DTD SVG 20010904//EN"
 "http://www.w3.org/TR/2001/REC-SVG-20010904/DTD/svg10.dtd">
<svg version="1.0" xmlns="http://www.w3.org/2000/svg"
 width="360.000000pt" height="360.000000pt" viewBox="0 0 360.000000 360.000000"
 preserveAspectRatio="xMidYMid meet">

<g transform="translate(0.000000,360.000000) scale(0.100000,-0.100000)"
fill="#000000" stroke="none">
<path d="M1430 2423 c-34 -13 -69 -45 -84 -78 -15 -31 -17 -93 -16 -580 0
-579 -1 -574 47 -617 36 -33 93 -50 142 -43 63 9 127 74 136 137 3 24 5 275 3
558 -3 499 -4 516 -24 550 -31 54 -77 80 -138 79 -28 0 -58 -3 -66 -6z"/>
<path d="M2157 2411 c-16 -10 -41 -35 -55 -56 l-27 -38 -3 -501 c-2 -275 0
-524 3 -553 8 -68 39 -112 98 -142 61 -30 122 -23 172 20 67 59 66 54 63 644
l-3 530 -24 39 c-13 21 -38 47 -55 57 -42 25 -131 26 -169 0z"/>
</g>
</svg>
