<?xml version="1.0" standalone="no"?>
<!DOCTYPE svg PUBLIC "-//W3C//DTD SVG 20010904//EN"
 "http://www.w3.org/TR/2001/REC-SVG-20010904/DTD/svg10.dtd">
<svg version="1.0" xmlns="http://www.w3.org/2000/svg"
 width="360.000000pt" height="360.000000pt" viewBox="0 0 360.000000 360.000000"
 preserveAspectRatio="xMidYMid meet">

<g transform="translate(0.000000,360.000000) scale(0.100000,-0.100000)"
fill="#000000" stroke="none">
<path d="M1195 2770 c-11 -4 -31 -20 -45 -35 l-25 -27 -3 -816 c-3 -912 -6
-874 64 -907 68 -32 26 -55 1007 565 365 230 387 249 387 325 0 78 -19 95
-278 256 -56 35 -135 85 -175 110 -39 25 -178 112 -307 194 -582 367 -567 359
-625 335z"/>
</g>
</svg>
