<?xml version="1.0" standalone="no"?>
<!DOCTYPE svg PUBLIC "-//W3C//DTD SVG 20010904//EN"
 "http://www.w3.org/TR/2001/REC-SVG-20010904/DTD/svg10.dtd">
<svg version="1.0" xmlns="http://www.w3.org/2000/svg"
 width="360.000000pt" height="360.000000pt" viewBox="0 0 360.000000 360.000000"
 preserveAspectRatio="xMidYMid meet">

<g transform="translate(0.000000,360.000000) scale(0.100000,-0.100000)"
fill="#000000" stroke="none">
<path d="M450 1795 l0 -1135 55 -1 c30 -1 63 -2 73 -3 16 -1 17 32 20 547 1
301 5 547 8 547 3 0 33 -15 67 -34 34 -19 153 -81 263 -139 256 -134 379 -199
584 -307 91 -48 215 -113 275 -145 61 -32 151 -79 200 -105 196 -104 266 -140
271 -140 2 0 4 101 4 225 0 127 4 225 9 225 5 0 76 -35 158 -79 431 -228 703
-371 708 -371 3 0 5 412 5 916 0 504 -3 914 -8 912 -13 -6 -380 -198 -620
-325 -128 -68 -237 -123 -242 -123 -6 0 -11 97 -12 225 l-3 225 -80 -41 c-44
-23 -116 -60 -160 -84 -44 -23 -129 -68 -190 -100 -60 -32 -184 -97 -275 -145
-91 -48 -309 -163 -485 -255 -176 -92 -352 -185 -392 -206 -40 -22 -75 -39
-78 -39 -3 0 -5 245 -5 545 l0 545 -75 0 -75 0 0 -1135z"/>
</g>
</svg>
