<?xml version="1.0" standalone="no"?>
<!DOCTYPE svg PUBLIC "-//W3C//DTD SVG 20010904//EN"
 "http://www.w3.org/TR/2001/REC-SVG-20010904/DTD/svg10.dtd">
<svg version="1.0" xmlns="http://www.w3.org/2000/svg"
 width="736.000000pt" height="454.000000pt" viewBox="0 0 736.000000 454.000000"
 preserveAspectRatio="xMidYMid meet">

<g transform="translate(0.000000,454.000000) scale(0.100000,-0.100000)"
fill="#000000" stroke="none">
<path d="M4954 4319 c-58 -17 -114 -93 -114 -154 0 -47 27 -89 119 -189 400
-435 625 -964 661 -1558 41 -685 -198 -1355 -663 -1857 -117 -126 -135 -169
-103 -244 30 -73 107 -115 184 -101 69 12 275 240 437 484 236 356 379 731
446 1170 30 192 33 580 6 765 -90 621 -345 1155 -755 1586 -100 105 -137 122
-218 98z"/>
<path d="M3335 3930 c-22 -11 -108 -71 -191 -133 -82 -61 -238 -177 -345 -257
-107 -79 -319 -238 -472 -352 l-277 -208 -320 0 -320 0 0 -710 0 -710 319 0
320 0 618 -459 c340 -252 637 -468 660 -480 51 -26 101 -27 119 -3 19 24 21
3301 2 3320 -18 18 -68 14 -113 -8z"/>
<path d="M4417 3795 c-71 -25 -107 -75 -107 -147 0 -56 18 -87 118 -200 593
-671 593 -1689 0 -2356 -100 -113 -118 -143 -118 -203 0 -118 140 -194 242
-131 57 36 213 222 311 372 197 305 315 679 333 1058 22 468 -137 977 -423
1352 -69 90 -189 222 -218 239 -43 26 -94 32 -138 16z"/>
<path d="M3964 3281 c-53 -24 -86 -71 -92 -131 -5 -58 11 -92 81 -168 317
-345 361 -884 105 -1279 -25 -37 -70 -97 -102 -133 -66 -74 -86 -113 -86 -168
0 -78 78 -152 159 -152 55 0 93 21 153 85 339 366 453 898 296 1374 -61 182
-150 336 -284 487 -92 104 -145 123 -230 85z"/>
</g>
</svg>
